# xmcd CD database file
#
# Track frame offsets:
#	150
#	68775
#	110170
#	140268
#	181549
#	203970
#	266624
#
# Disc length: 4390 seconds
#
# Revision: 0
# Processed by: cddbd v1.5.2PL0 Copyright (c) Steve Scherf et al.
# Submitted via: CDex 1.70beta2
#
DISCID=62112407
DTITLE=Harrison Bankhead - Velvet Blue
DYEAR=2013
DGENRE=Jazz
TTITLE0=Velvet Blue 
TTITLE1=After Hours
TTITLE2=Right On It
TTITLE3=Ancestors Of The Pharoahs Of Nabta Playa
TTITLE4=Take It To The Bridge, Ya'll 
TTITLE5=Rhythm Of The Earth
TTITLE6=A Sketch Of Stravinsky 
EXTD=YEAR: 2013
EXTT0=
EXTT1=
EXTT2=
EXTT3=
EXTT4=
EXTT5=
EXTT6=
PLAYORDER=
